<?xml version="1.0" standalone="no"?>
<!DOCTYPE svg PUBLIC "-//W3C//DTD SVG 20010904//EN"
 "http://www.w3.org/TR/2001/REC-SVG-20010904/DTD/svg10.dtd">
<svg version="1.0" xmlns="http://www.w3.org/2000/svg"
 width="788.000000pt" height="788.000000pt" viewBox="0 0 788.000000 788.000000"
 preserveAspectRatio="xMidYMid meet">

<g transform="translate(0.000000,788.000000) scale(0.100000,-0.100000)"
fill="#000000" stroke="none">
<path d="M4762 6457 c-12 -15 -52 -148 -87 -289 -13 -53 -32 -109 -43 -125
-10 -15 -31 -47 -47 -70 -48 -73 -177 -199 -218 -212 -67 -22 -71 -16 -64 112
6 115 38 241 111 431 14 37 26 75 26 82 0 23 -61 54 -106 54 -41 0 -41 0 -71
-67 -69 -154 -97 -279 -97 -441 0 -101 2 -117 24 -157 43 -78 138 -106 225
-66 40 19 112 82 153 135 12 16 25 27 28 24 8 -9 -48 -220 -60 -223 -251 -64
-408 -174 -491 -343 -35 -71 -38 -84 -39 -167 -1 -76 3 -98 23 -138 45 -92
174 -134 277 -91 131 55 257 250 365 566 24 71 49 128 56 128 7 0 37 9 68 21
39 14 77 41 133 94 l79 74 22 -39 c41 -74 121 -112 191 -91 44 13 108 75 160
154 38 59 40 60 40 31 0 -49 29 -122 59 -147 38 -32 102 -51 144 -43 71 13
145 96 208 233 68 149 83 203 58 219 -16 10 -32 -13 -64 -91 -16 -38 -39 -87
-52 -107 -13 -21 -23 -42 -23 -48 0 -5 -4 -10 -8 -10 -4 0 -15 -13 -25 -29
-21 -36 -88 -101 -104 -101 -16 0 -29 26 -37 75 -9 51 11 162 71 402 l47 192
-23 25 c-24 26 -86 42 -119 32 -11 -4 -22 -19 -26 -36 -5 -27 -30 -41 -38 -22
-7 16 -108 52 -148 52 -130 0 -266 -166 -325 -395 -8 -32 -15 -79 -15 -103 0
-32 -8 -54 -29 -85 -65 -92 -151 -169 -205 -183 -34 -8 -36 -29 24 201 34 130
112 450 120 490 7 33 -23 69 -73 90 -44 18 -61 19 -75 2z m709 -126 l23 -18
-28 -144 c-28 -141 -29 -146 -92 -246 -76 -119 -151 -203 -182 -203 -16 0 -23
8 -28 36 -9 51 2 210 20 264 18 59 48 134 55 140 4 3 19 24 34 48 32 49 79 97
122 123 38 24 47 24 76 0z m-966 -830 c-34 -90 -108 -255 -136 -303 -16 -27
-29 -52 -29 -56 0 -15 -100 -135 -131 -158 -85 -62 -135 8 -127 175 3 73 9 95
32 135 71 121 188 212 336 261 76 26 82 20 55 -54z"/>
<path d="M3194 6289 c-90 -34 -171 -120 -207 -219 -28 -79 -30 -128 -7 -255
40 -232 39 -424 -4 -487 -31 -47 -51 -47 -74 -1 -39 75 -105 349 -133 544 -12
84 -13 87 -46 103 -72 34 -143 11 -143 -47 0 -18 9 -86 20 -152 11 -66 20
-160 20 -210 0 -87 -13 -165 -28 -165 -4 0 -20 23 -37 52 -42 72 -149 176
-209 204 -65 30 -147 32 -193 4 -54 -32 -76 -90 -77 -197 -1 -51 -2 -93 -4
-93 -1 0 -18 25 -37 55 -41 63 -58 68 -131 33 -59 -27 -72 -54 -47 -99 24 -45
127 -197 318 -471 33 -47 168 -236 200 -280 11 -15 42 -58 69 -95 28 -38 53
-70 56 -73 3 -3 33 -39 65 -80 81 -104 185 -219 207 -231 23 -12 84 14 99 44
9 15 7 25 -7 43 -79 100 -263 347 -319 429 -38 55 -85 123 -104 150 -20 28
-49 69 -64 92 l-27 42 38 -25 c31 -22 45 -25 87 -21 27 2 51 10 53 16 2 6 10
11 17 11 23 0 92 88 105 135 16 56 9 160 -15 236 l-18 57 27 34 c14 19 26 42
26 50 0 35 15 23 41 -32 51 -108 105 -160 182 -174 55 -10 120 21 145 71 36
72 45 138 39 282 -3 75 -9 147 -13 160 -7 22 -5 23 17 17 13 -5 65 -16 114
-25 137 -27 165 -42 130 -71 -20 -17 -70 -90 -97 -143 -75 -148 -57 -310 41
-365 81 -46 223 -18 299 59 69 68 87 118 87 239 0 94 -3 110 -27 155 -14 28
-47 70 -71 95 l-46 44 54 58 c116 125 216 405 156 438 -27 14 -51 -12 -51 -54
0 -53 -28 -147 -70 -232 -40 -81 -116 -174 -143 -174 -50 0 -253 43 -269 56
-30 28 -41 81 -36 178 3 68 10 103 27 139 34 70 72 107 111 107 71 0 90 -37
90 -172 0 -73 3 -90 16 -95 31 -12 44 25 44 119 0 70 -4 97 -20 129 -40 77
-122 98 -226 58z m221 -673 c46 -46 82 -175 70 -255 -7 -51 -49 -151 -68 -163
-36 -23 -110 20 -143 83 -33 65 -8 172 69 292 38 60 49 66 72 43z m-1140 -68
c58 -55 147 -194 167 -260 11 -38 11 -39 -34 -86 -73 -75 -102 -155 -79 -216
7 -16 10 -30 9 -32 -2 -1 -36 47 -76 107 -87 131 -112 213 -112 373 0 178 29
204 125 114z m220 -450 c9 -70 -2 -137 -23 -145 -28 -11 -62 42 -62 98 0 54
10 80 43 117 20 22 22 22 28 4 4 -10 10 -44 14 -74z"/>
<path d="M2573 6170 c-18 -11 -35 -31 -39 -46 -14 -53 78 -105 159 -90 46 9
89 51 85 84 -7 64 -134 96 -205 52z"/>
<path d="M6136 6065 c-76 -27 -108 -101 -71 -165 20 -34 19 -60 -2 -60 -10 0
-25 -5 -33 -10 -11 -7 -8 -8 12 -6 15 1 34 8 42 15 14 12 13 17 -4 52 -43 83
-9 153 82 169 41 8 68 3 40 -7 -39 -14 -63 -67 -52 -113 4 -16 -1 -37 -13 -58
-16 -27 -18 -40 -10 -66 10 -32 10 -32 -24 -28 -31 4 -33 2 -33 -25 0 -16 7
-38 15 -49 39 -51 1 -59 -49 -9 -41 41 -51 67 -36 97 11 22 10 22 -4 4 -24
-30 -20 -49 24 -98 l39 -45 -21 -51 c-21 -51 -21 -53 -4 -108 10 -31 19 -54
22 -52 2 3 -3 25 -12 50 -12 36 -13 55 -5 86 15 53 37 70 96 74 47 3 50 5 53
32 2 16 -1 33 -7 39 -7 7 -8 -1 -4 -26 5 -36 5 -37 -25 -37 -27 0 -35 6 -52
40 -35 68 -21 87 40 55 l30 -16 -21 44 c-20 42 -21 45 -5 79 24 50 85 78 167
77 l64 -1 -32 -14 c-49 -21 -40 -23 22 -6 71 20 54 32 -45 32 -53 0 -88 -6
-117 -20 l-43 -19 0 44 c0 35 5 48 26 64 15 12 40 21 57 21 42 0 23 16 -28 24
-24 3 -56 0 -79 -9z"/>
<path d="M6277 5892 c-25 -28 -21 -52 23 -143 49 -102 54 -163 15 -181 -19 -8
-32 -8 -52 1 -27 11 -27 10 -8 -4 22 -18 74 -13 87 8 20 31 8 101 -32 178 -44
86 -48 113 -23 141 9 10 14 18 11 18 -3 0 -12 -8 -21 -18z"/>
<path d="M6169 5566 c-18 -39 -3 -87 56 -176 38 -58 55 -93 55 -116 0 -43 -11
-48 -70 -34 -47 11 -50 14 -50 44 0 30 -14 57 -72 136 -10 13 -20 22 -22 19
-2 -2 16 -30 40 -62 29 -38 44 -69 44 -88 0 -16 -1 -29 -2 -29 -2 0 -41 7 -88
15 -150 26 -410 13 -480 -25 -18 -10 -82 -204 -115 -355 -36 -157 -45 -358
-45 -1000 0 -547 0 -551 -24 -658 -27 -117 -57 -179 -108 -222 -34 -29 -143
-85 -165 -85 -19 0 -29 -28 -43 -110 l-13 -74 34 -29 c86 -73 231 -142 364
-175 97 -24 313 -21 409 5 66 18 70 21 83 58 7 21 16 62 19 91 6 45 3 57 -17
85 -65 91 -109 186 -109 237 0 79 65 310 125 447 112 253 211 451 327 650 131
226 165 287 190 348 40 93 92 300 114 447 l18 122 -25 19 c-45 36 -174 106
-247 135 -68 27 -72 31 -66 54 12 44 5 71 -30 121 -19 26 -46 70 -60 98 -38
75 -34 115 14 124 24 4 24 4 -3 6 -20 1 -30 -5 -38 -23z m-70 -346 c54 -11
129 -31 167 -46 77 -29 246 -114 283 -143 l24 -18 -17 -114 c-35 -242 -95
-425 -198 -596 -173 -288 -372 -672 -424 -816 -7 -20 -20 -52 -28 -70 -54
-121 -112 -365 -102 -429 7 -43 45 -122 98 -206 l34 -53 -12 -61 c-7 -33 -15
-62 -17 -65 -3 -2 -45 -11 -94 -20 -113 -20 -278 -12 -383 17 -114 32 -276
118 -303 160 -11 19 9 130 25 130 26 0 137 63 172 97 60 60 84 104 112 215
l27 103 7 720 c8 718 8 720 33 836 33 152 95 349 112 355 75 29 351 31 484 4z"/>
<path d="M5585 4727 l-60 -12 -6 -85 c-4 -47 -10 -362 -14 -700 l-7 -615 -29
-120 c-17 -66 -36 -131 -42 -144 -24 -48 -95 -109 -164 -142 -65 -31 -72 -37
-78 -69 -3 -19 -8 -43 -11 -52 -4 -13 12 -29 63 -61 155 -99 316 -138 483
-120 139 16 147 21 155 87 6 48 4 58 -17 88 -14 18 -41 65 -61 104 -30 59 -37
83 -37 130 0 63 37 234 71 323 52 141 315 689 361 754 36 50 238 424 238 440
0 9 -208 107 -280 132 -145 50 -229 66 -370 70 -83 3 -158 0 -195 -8z m273
-507 c46 -28 42 -44 -9 -36 -50 8 -102 33 -94 46 10 17 68 11 103 -10z"/>
<path d="M1280 5453 c-24 -5 -87 -46 -102 -67 -23 -33 2 -116 193 -636 59
-162 209 -620 209 -639 0 -29 -43 -61 -81 -61 -59 0 -120 54 -181 160 -28 47
-32 63 -31 123 l1 69 -45 -5 c-49 -5 -85 -27 -117 -71 -16 -21 -21 -42 -20
-89 0 -77 34 -147 106 -223 59 -62 118 -94 175 -94 42 0 155 38 199 66 13 9
27 14 30 11 12 -12 86 -303 123 -485 36 -177 50 -268 59 -386 4 -49 12 -91 17
-93 6 -2 20 3 30 11 18 13 20 26 19 158 -1 185 -36 368 -138 730 -20 71 -36
134 -36 141 0 8 11 24 25 37 27 25 98 143 135 222 l21 46 33 -31 c264 -254
416 -351 567 -364 81 -7 140 11 184 57 35 37 28 60 -19 60 -119 0 -215 47
-386 188 -97 80 -281 264 -277 276 2 6 21 11 43 12 78 2 112 14 144 50 38 44
30 58 -44 75 -61 13 -105 3 -168 -37 -21 -13 -42 -24 -47 -24 -8 0 -154 159
-179 195 -4 6 -30 39 -58 75 -95 120 -225 324 -281 438 -30 61 -60 111 -66
111 -7 -1 -23 -4 -37 -6z m268 -715 c121 -144 140 -166 195 -225 l30 -32 -53
-118 c-29 -65 -58 -126 -64 -135 -10 -14 -25 23 -91 220 -43 130 -82 244 -86
252 -12 22 -59 159 -59 171 0 5 2 9 4 9 2 0 58 -64 124 -142z"/>
<path d="M3265 5014 c-157 -56 -316 -193 -314 -271 0 -16 25 -68 59 -123 88
-142 145 -234 148 -242 2 -4 -2 -14 -10 -22 -70 -72 -120 -161 -126 -221 -3
-39 -10 -56 -32 -75 -31 -28 -44 -61 -42 -106 1 -26 -5 -36 -33 -55 -48 -33
-68 -77 -54 -118 9 -26 8 -35 -3 -49 -23 -27 -28 -50 -17 -79 8 -23 6 -30 -15
-50 -29 -27 -41 -62 -32 -97 4 -17 1 -28 -8 -33 -25 -14 -45 -63 -39 -99 4
-24 0 -40 -16 -60 -25 -32 -27 -61 -6 -91 14 -20 13 -25 -5 -61 -23 -45 -17
-79 21 -105 l22 -16 -22 -27 c-26 -33 -26 -39 0 -76 21 -29 21 -30 4 -62 -24
-45 -14 -82 30 -108 19 -11 35 -21 35 -22 0 -2 -7 -17 -16 -34 -25 -50 4 -106
68 -133 27 -11 29 -15 23 -46 -11 -61 1 -89 48 -107 60 -23 86 -20 149 14 119
65 284 105 492 120 291 21 564 99 966 277 124 55 440 210 520 254 94 53 192
135 216 181 32 62 2 128 -58 128 -15 0 -28 2 -28 5 0 2 10 25 22 50 l23 46
-20 36 c-11 20 -35 44 -53 54 -44 23 -47 26 -35 41 36 45 19 99 -41 136 l-44
27 5 62 c5 52 3 66 -16 91 -12 17 -30 34 -41 37 -14 4 -20 16 -21 38 -2 76
-35 115 -106 126 -33 5 -38 10 -41 36 -8 85 -40 125 -101 125 -39 0 -40 1 -39
33 3 92 -37 134 -117 121 l-45 -6 0 39 c0 25 -9 53 -23 74 -22 32 -26 34 -82
34 -52 0 -60 3 -63 20 -8 41 -23 48 -89 42 -61 -5 -63 -4 -63 20 0 30 -42 73
-72 73 -13 0 -41 -9 -63 -19 -36 -16 -43 -17 -72 -3 -26 12 -40 13 -70 4 -21
-6 -65 -14 -98 -17 -33 -3 -90 -13 -127 -22 -37 -9 -69 -15 -71 -12 -5 7 -141
200 -182 259 -21 30 -46 60 -54 67 -21 16 -76 15 -126 -3z m105 -5 c30 -11 32
-14 27 -46 -8 -45 -45 -93 -115 -150 -127 -101 -302 -151 -318 -89 -20 80 160
236 326 282 25 7 45 13 46 13 1 1 16 -4 34 -10z m193 -245 l137 -195 -15 -32
c-26 -55 -180 -207 -208 -207 -4 0 -7 21 -7 48 0 69 -9 95 -27 81 -10 -9 -13
-26 -8 -68 l6 -56 -29 45 c-16 25 -41 67 -55 95 -22 40 -27 45 -27 25 0 -19
-3 -21 -12 -12 -27 27 -28 9 -1 -25 16 -21 37 -49 46 -63 9 -14 24 -35 33 -48
26 -36 11 -35 -47 3 -29 19 -59 35 -66 35 -21 0 -15 -18 10 -31 43 -22 106
-64 107 -70 0 -10 -57 -19 -114 -19 l-51 0 -46 78 c-25 42 -81 133 -123 202
l-76 125 49 7 c132 20 309 140 359 244 8 19 18 34 21 34 3 -1 68 -89 144 -196z
m587 -64 c25 -25 20 -51 -23 -133 -31 -60 -30 -69 11 -82 17 -5 22 -2 22 12 0
10 10 41 22 70 19 47 26 54 61 64 35 9 42 8 59 -8 18 -19 18 -21 -7 -94 -63
-178 -61 -166 -40 -189 10 -11 26 -20 35 -20 24 0 33 27 14 38 -12 7 -14 18
-9 45 4 20 10 37 14 37 4 0 13 17 20 38 22 58 40 80 74 88 26 5 35 2 54 -20
31 -36 27 -72 -20 -168 -38 -79 -46 -132 -24 -162 20 -27 51 -10 42 23 -10 43
-6 71 17 113 35 61 106 88 142 53 38 -38 30 -101 -29 -229 -30 -66 -29 -88 4
-93 22 -3 23 -1 17 28 -10 51 63 159 107 159 40 -1 58 -24 64 -83 5 -51 3 -59
-30 -109 -20 -29 -48 -64 -62 -76 -33 -29 -31 -65 4 -70 21 -3 23 -1 17 23 -6
22 2 34 49 82 30 31 55 60 55 65 0 4 15 8 34 8 43 0 86 -46 86 -92 0 -25 -15
-45 -85 -113 -86 -84 -106 -125 -69 -139 29 -11 35 -6 32 30 -2 27 2 39 16 48
36 21 61 41 98 80 l38 39 25 -23 c20 -19 25 -33 25 -74 -1 -58 -10 -71 -103
-150 -59 -50 -75 -89 -39 -98 29 -8 45 2 31 18 -10 12 -7 20 11 39 13 14 28
25 32 25 5 0 15 6 23 13 54 51 56 52 94 31 65 -35 51 -113 -28 -153 -38 -20
-101 -83 -101 -102 0 -23 22 -49 40 -49 22 0 26 20 10 36 -8 8 -2 20 18 42 36
39 91 51 137 29 69 -33 48 -122 -40 -168 -52 -26 -92 -78 -81 -104 3 -9 16
-19 28 -24 29 -11 43 16 22 40 -12 14 -12 18 5 33 40 36 142 49 170 22 39 -40
-41 -138 -178 -219 -145 -84 -645 -327 -675 -327 -3 0 -25 -9 -49 -19 -60 -27
-267 -97 -362 -121 -114 -30 -211 -47 -450 -76 -115 -14 -220 -27 -232 -29
-38 -5 -168 -49 -171 -57 -2 -4 -8 -8 -14 -8 -5 0 -23 -9 -39 -21 -81 -57
-180 15 -121 87 29 36 65 53 127 60 73 8 107 27 103 57 -3 23 -38 37 -38 15
-1 -30 -20 -40 -94 -48 -42 -5 -86 -16 -98 -25 -31 -21 -59 -19 -89 8 -74 64
-13 137 114 137 52 0 88 15 115 48 31 39 -5 44 -42 7 -21 -21 -35 -25 -93 -27
-37 0 -74 -1 -80 -1 -7 1 -10 -3 -7 -8 14 -24 -55 -1 -83 27 -21 21 -15 61 12
82 19 15 35 18 70 15 25 -3 58 0 75 7 32 13 55 44 45 60 -10 17 -32 11 -38 -9
-4 -16 -16 -20 -78 -23 -75 -3 -108 9 -103 40 1 6 2 16 3 21 2 14 57 28 135
36 103 9 136 31 136 91 0 17 -6 24 -20 24 -15 0 -20 -7 -20 -25 0 -34 -30 -47
-125 -56 -73 -6 -82 -5 -102 14 -25 23 -30 55 -10 79 9 12 35 17 107 20 71 3
103 9 128 23 34 21 41 45 17 65 -12 10 -16 8 -24 -13 -12 -32 -61 -47 -152
-47 -52 0 -68 4 -73 16 -10 27 -7 71 7 81 6 6 50 13 97 15 89 6 165 33 177 64
10 26 -4 26 -55 0 -54 -27 -136 -42 -176 -32 -19 5 -26 13 -26 30 0 52 7 56
91 56 103 0 216 37 191 62 -6 6 -28 3 -56 -6 -49 -17 -133 -21 -153 -8 -7 4
-15 22 -19 39 -10 52 19 71 110 72 48 0 87 6 106 16 38 20 40 40 3 31 -16 -4
-57 -10 -92 -13 -55 -5 -66 -3 -78 13 -7 10 -13 25 -13 33 1 37 17 44 118 51
64 5 108 13 122 23 26 18 10 33 -19 17 -11 -5 -53 -10 -94 -10 -69 0 -75 2
-85 25 -15 32 1 79 33 93 17 8 37 7 77 -4 56 -15 116 -18 142 -8 30 12 16 21
-42 28 -78 9 -122 36 -122 76 0 16 4 30 9 30 5 0 11 10 14 22 6 20 7 20 31 4
15 -9 26 -14 26 -11 0 2 23 -4 50 -15 53 -21 149 -27 152 -10 0 6 1 16 2 23 1
6 30 23 65 35 50 19 65 21 72 11 4 -7 17 -13 28 -14 15 -1 21 4 21 20 0 19 4
21 26 17 18 -3 25 -1 20 6 -4 6 -13 9 -21 5 -31 -11 -13 13 23 32 68 35 216
143 278 202 33 32 82 87 107 121 45 61 46 62 40 27 -5 -33 -4 -35 21 -35 25 0
27 2 21 30 -7 32 6 106 32 177 10 29 25 46 47 57 41 20 52 20 76 -4z m-208
-18 c29 -29 30 -102 2 -152 -104 -188 -360 -385 -604 -467 -208 -70 -328 -39
-306 80 8 44 54 126 97 176 l37 41 32 -54 c41 -68 79 -90 148 -89 65 0 149 41
241 116 134 108 163 193 96 280 -19 25 -35 50 -35 55 0 18 114 41 192 39 66
-2 81 -6 100 -25z m31 14 c9 -7 17 -24 16 -37 -1 -23 -1 -23 -13 4 -7 16 -19
33 -27 38 -8 5 -9 9 -4 9 6 -1 18 -7 28 -14z m-503 -616 c0 -5 -5 -10 -11 -10
-5 0 -7 5 -4 10 3 6 8 10 11 10 2 0 4 -4 4 -10z m-213 -66 c-3 -3 -12 -4 -19
-1 -8 3 -5 6 6 6 11 1 17 -2 13 -5z"/>
<path d="M3840 4253 c0 -5 5 -15 10 -23 8 -12 10 -11 10 8 0 12 -4 22 -10 22
-5 0 -10 -3 -10 -7z"/>
<path d="M3821 4213 c-1 -12 4 -25 9 -28 12 -7 12 2 0 30 -8 19 -9 19 -9 -2z"/>
<path d="M3858 4203 c7 -3 16 -2 19 1 4 3 -2 6 -13 5 -11 0 -14 -3 -6 -6z"/>
<path d="M3960 4184 c0 -8 -4 -12 -10 -9 -5 3 -10 1 -10 -4 0 -18 19 -12 30 9
7 14 7 20 0 20 -5 0 -10 -7 -10 -16z"/>
<path d="M4166 4171 c-17 -12 -24 -21 -17 -25 6 -4 11 -2 11 3 0 6 9 11 19 11
22 0 36 16 23 24 -5 3 -21 -3 -36 -13z"/>
<path d="M3888 4153 c6 -2 18 -2 25 0 6 3 1 5 -13 5 -14 0 -19 -2 -12 -5z"/>
<path d="M4362 4130 c0 -19 2 -27 5 -17 2 9 2 25 0 35 -3 9 -5 1 -5 -18z"/>
<path d="M3400 4024 c0 -16 26 -43 42 -44 3 0 1 14 -5 30 -12 32 -37 41 -37
14z"/>
<path d="M4163 4034 c4 -4 33 -9 64 -11 32 -3 55 -2 51 2 -3 3 -32 8 -64 11
-32 3 -55 2 -51 -2z"/>
<path d="M4325 3944 c-94 -23 -192 -87 -252 -165 -58 -75 -41 -90 34 -32 55
41 151 87 203 96 19 4 64 2 98 -3 82 -11 112 -1 112 38 0 46 -31 66 -108 69
-37 1 -76 0 -87 -3z"/>
<path d="M3765 3935 c23 -8 83 -10 79 -3 -3 4 -24 8 -47 7 -23 0 -37 -2 -32
-4z"/>
<path d="M3685 3885 c-5 -11 -10 -24 -13 -30 -3 -5 3 -3 13 7 9 9 15 22 12 30
-3 9 -7 7 -12 -7z"/>
<path d="M3878 3865 c2 -14 6 -25 8 -25 2 0 4 11 4 25 0 14 -4 25 -9 25 -4 0
-6 -11 -3 -25z"/>
<path d="M3650 3780 c0 -5 5 -10 10 -10 6 0 10 5 10 10 0 6 -4 10 -10 10 -5 0
-10 -4 -10 -10z"/>
<path d="M3710 3780 c0 -5 14 -10 30 -10 17 0 30 5 30 10 0 6 -13 10 -30 10
-16 0 -30 -4 -30 -10z"/>
<path d="M3401 3744 c0 -11 3 -14 6 -6 3 7 2 16 -1 19 -3 4 -6 -2 -5 -13z"/>
<path d="M3713 3753 c15 -2 37 -2 50 0 12 2 0 4 -28 4 -27 0 -38 -2 -22 -4z"/>
<path d="M4475 3690 l40 -7 -52 -2 c-40 -1 -57 -6 -76 -25 -35 -34 -41 -56
-17 -56 11 0 19 -6 18 -12 -3 -13 2 -13 65 -9 29 2 30 3 10 11 -32 13 -28 17
13 12 27 -3 41 1 60 19 48 45 21 80 -58 78 l-43 -2 40 -7z"/>
<path d="M3345 3670 c4 -6 11 -8 16 -5 14 9 11 15 -7 15 -8 0 -12 -5 -9 -10z"/>
<path d="M3315 3650 c-3 -5 1 -10 10 -10 9 0 13 5 10 10 -3 6 -8 10 -10 10 -2
0 -7 -4 -10 -10z"/>
<path d="M3447 3640 c-128 -41 -206 -128 -168 -189 17 -27 61 -15 109 30 70
67 70 67 120 90 34 15 76 22 150 26 119 7 133 22 44 47 -76 21 -182 20 -255
-4z"/>
<path d="M4085 3530 c-12 -4 -27 -15 -35 -24 -26 -32 -94 -58 -165 -63 -38 -3
-80 -11 -91 -19 -44 -27 -38 -109 9 -132 42 -20 57 -22 57 -7 0 25 50 73 102
99 60 30 128 34 173 10 28 -14 31 -14 47 6 10 13 18 39 18 60 0 61 -56 95
-115 70z"/>
<path d="M4650 3495 c-9 -10 -9 -15 -1 -15 6 0 11 5 11 11 0 5 5 7 10 4 6 -3
10 -1 10 4 0 16 -16 13 -30 -4z"/>
<path d="M4591 3453 c-1 -6 -4 -20 -7 -30 -5 -17 -5 -17 6 0 6 10 9 23 6 30
-3 9 -5 9 -5 0z"/>
<path d="M3420 3346 c-22 -13 -25 -19 -22 -60 l4 -46 44 0 c24 0 44 5 44 10 0
6 8 10 18 10 9 0 25 7 35 14 22 17 23 72 1 80 -27 11 -98 6 -124 -8z"/>
<path d="M4320 3343 c8 -3 24 -10 35 -15 20 -9 20 -9 1 6 -11 9 -27 16 -35 15
-14 0 -14 -1 -1 -6z"/>
<path d="M4212 3298 c-15 -15 -16 -38 -2 -38 12 0 23 25 18 40 -2 7 -7 7 -16
-2z"/>
<path d="M3843 3120 c0 -25 2 -35 4 -22 2 12 2 32 0 45 -2 12 -4 2 -4 -23z"/>
<path d="M4513 3148 c-18 -6 -33 -15 -33 -21 0 -5 9 -6 23 -2 12 4 38 7 57 7
33 -1 34 0 16 14 -22 16 -19 16 -63 2z"/>
<path d="M3283 3134 c0 -8 10 -14 25 -14 28 0 27 2 -4 18 -16 9 -21 8 -21 -4z"/>
<path d="M3667 3133 c-12 -11 -8 -23 8 -23 8 0 15 7 15 15 0 16 -12 20 -23 8z"/>
<path d="M4462 3085 c-1 -23 3 -46 10 -53 14 -14 88 -16 88 -2 0 6 -20 10 -44
10 l-45 0 -4 43 -4 42 -1 -40z"/>
<path d="M4612 3100 c0 -14 2 -19 5 -12 2 6 2 18 0 25 -3 6 -5 1 -5 -13z"/>
<path d="M3657 3093 c-11 -10 -8 -20 7 -26 10 -4 14 0 13 14 -1 20 -9 24 -20
12z"/>
<path d="M3702 3093 c-6 -3 -10 -9 -6 -14 7 -12 64 -12 64 1 0 5 -7 7 -16 3
-9 -3 -19 -1 -23 4 -3 6 -12 8 -19 6z"/>
<path d="M3800 3070 c0 -5 4 -10 9 -10 6 0 13 5 16 10 3 6 -1 10 -9 10 -9 0
-16 -4 -16 -10z"/>
<path d="M3723 3043 c9 -2 25 -2 35 0 9 3 1 5 -18 5 -19 0 -27 -2 -17 -5z"/>
<path d="M4182 3016 c7 -8 15 -12 17 -11 5 6 -10 25 -20 25 -5 0 -4 -6 3 -14z"/>
<path d="M3448 2923 c6 -2 18 -2 25 0 6 3 1 5 -13 5 -14 0 -19 -2 -12 -5z"/>
<path d="M4120 2910 c0 -5 7 -7 15 -4 8 4 15 8 15 10 0 2 -7 4 -15 4 -8 0 -15
-4 -15 -10z"/>
<path d="M3480 2789 c0 -5 5 -7 10 -4 6 3 10 8 10 11 0 2 -4 4 -10 4 -5 0 -10
-5 -10 -11z"/>
<path d="M3300 2770 c0 -5 5 -10 10 -10 6 0 10 5 10 10 0 6 -4 10 -10 10 -5 0
-10 -4 -10 -10z"/>
<path d="M3363 2753 c15 -2 39 -2 55 0 15 2 2 4 -28 4 -30 0 -43 -2 -27 -4z"/>
<path d="M3100 2294 c-59 -50 -124 -211 -150 -372 -10 -60 -33 -102 -55 -102
-21 0 -19 45 6 142 11 44 18 87 15 94 -6 16 -38 18 -52 4 -7 -7 -19 -8 -37 -1
-65 25 -133 -52 -144 -163 -4 -41 -1 -56 14 -75 28 -35 67 -31 103 10 23 27
30 30 30 16 0 -40 52 -65 86 -42 14 9 25 11 29 5 3 -6 14 -10 24 -10 15 0 20
14 30 75 11 66 18 81 50 115 57 60 86 50 74 -24 -5 -32 -9 -36 -35 -36 -67 0
-110 -106 -54 -131 40 -18 74 -3 104 46 39 63 81 68 82 9 0 -30 41 -64 76 -64
31 0 70 32 93 78 9 16 21 22 46 22 35 0 35 -1 35 -43 0 -78 41 -91 60 -19 18
62 74 187 90 197 10 6 11 -1 6 -29 -10 -52 13 -86 57 -86 34 0 77 23 65 35 -3
4 -15 2 -26 -4 -36 -19 -42 -13 -40 38 3 55 -13 81 -48 81 -22 0 -54 -37 -78
-90 -6 -15 -1 15 10 57 5 18 1 23 -21 29 -34 8 -40 -1 -56 -83 -13 -62 -13
-63 -47 -63 -29 0 -33 3 -27 21 10 32 -17 110 -42 122 -47 21 -110 -20 -140
-93 -27 -63 -63 -69 -63 -10 0 51 -16 85 -48 99 -21 10 -30 9 -53 -8 -43 -32
-43 -11 0 31 86 82 134 180 110 224 -16 31 -40 30 -79 -2z m65 -36 c-11 -52
-105 -197 -105 -162 0 24 54 146 75 168 32 34 38 33 30 -6z m-320 -280 c-5
-37 -19 -69 -44 -105 -45 -66 -61 -68 -61 -8 0 77 49 165 93 165 17 0 18 -5
12 -52z m535 43 c0 -5 -7 -11 -15 -15 -19 -7 -19 -50 0 -79 13 -20 12 -26 -5
-54 -22 -37 -64 -68 -80 -58 -27 17 -2 126 42 179 27 34 58 48 58 27z m10 -57
c0 -14 -4 -23 -10 -19 -5 3 -10 15 -10 26 0 10 5 19 10 19 6 0 10 -12 10 -26z
m-290 -64 c0 -5 -13 -24 -30 -42 -28 -31 -29 -32 -30 -10 0 12 9 31 20 42 21
21 40 26 40 10z"/>
<path d="M5365 2286 c-33 -35 -82 -125 -109 -201 -8 -25 -19 -38 -27 -36 -51
15 -67 12 -101 -18 -33 -28 -41 -46 -67 -147 -13 -49 -36 -73 -53 -56 -9 9 -6
38 11 116 13 57 20 109 17 115 -9 15 -43 14 -48 -1 -3 -9 -12 -9 -36 1 -45 19
-89 -9 -122 -77 -32 -66 -55 -70 -46 -8 8 53 -8 86 -42 86 -28 0 -44 -14 -71
-66 -23 -42 -27 -35 -10 16 9 26 9 34 -2 41 -43 27 -59 1 -80 -135 -11 -68
-31 -106 -56 -106 -13 0 -15 9 -9 64 10 100 32 156 81 209 44 47 45 48 90 42
57 -9 111 1 119 22 9 23 1 27 -25 13 -19 -11 -116 -16 -125 -7 -2 2 6 22 17
44 12 24 19 56 17 75 -2 28 -7 34 -31 36 -32 4 -76 -36 -107 -99 -19 -36 -20
-37 -89 -41 -39 -2 -76 -9 -82 -15 -9 -9 7 -10 65 -6 42 3 76 3 76 0 0 -3 -5
-18 -10 -33 -25 -64 -50 -177 -52 -232 -4 -89 35 -125 91 -86 22 16 24 16 33
0 16 -29 35 -17 48 32 17 61 74 187 90 197 9 6 11 -2 5 -33 -5 -33 -3 -44 14
-61 12 -12 30 -21 41 -21 15 0 20 -7 20 -25 0 -36 26 -82 50 -90 24 -8 64 15
81 46 11 21 11 21 26 -9 19 -39 50 -47 84 -22 27 19 27 19 44 -1 10 -10 29
-19 42 -19 24 0 73 43 73 64 1 6 7 -3 15 -21 17 -40 55 -52 91 -28 23 15 27
15 43 1 24 -22 58 -20 71 4 6 11 15 20 20 20 6 0 19 -9 30 -20 32 -32 81 -26
135 15 l46 36 10 -31 c15 -43 53 -51 86 -18 l25 25 23 -23 c44 -44 101 -25
150 49 13 21 25 27 51 27 32 0 34 -2 34 -34 0 -33 21 -66 41 -66 10 0 42 66
73 150 19 53 65 115 66 88 0 -9 -5 -29 -11 -45 -6 -15 -17 -52 -24 -82 -13
-46 -13 -57 1 -82 27 -54 77 -30 132 62 12 20 22 41 22 48 0 20 -17 11 -29
-16 -16 -34 -70 -103 -82 -103 -11 0 -1 52 22 115 24 64 24 107 0 129 -32 29
-65 6 -106 -71 -36 -68 -36 -67 -7 16 14 41 14 45 -4 58 -10 7 -23 12 -28 10
-6 -2 -22 -36 -36 -76 -15 -41 -34 -77 -43 -82 -25 -15 -48 0 -46 30 3 39 -11
88 -32 107 -56 50 -169 -53 -169 -155 0 -8 -12 -30 -26 -48 -45 -59 -51 -28
-19 92 26 100 27 107 11 123 -16 16 -18 16 -31 -1 -7 -10 -21 -48 -31 -85 -9
-37 -24 -76 -33 -86 -29 -34 -93 -76 -118 -76 -20 0 -23 5 -23 40 0 52 23 107
62 148 39 40 48 40 48 2 0 -32 14 -40 24 -14 9 25 7 33 -14 54 -27 27 -69 25
-102 -4 -29 -24 -67 -98 -68 -129 0 -22 -40 -85 -59 -92 -19 -7 -9 76 20 162
20 62 21 65 3 78 -11 8 -23 13 -29 11 -13 -3 -30 -54 -49 -145 -10 -50 -21
-78 -37 -92 -23 -20 -23 -20 -31 1 -8 23 -7 35 19 140 14 54 25 73 64 112 26
26 62 78 80 114 31 62 32 68 18 93 -22 38 -45 38 -84 -3z m41 -93 c-29 -57
-75 -114 -76 -94 0 19 49 129 74 166 l21 30 3 -27 c2 -14 -8 -48 -22 -75z
m-736 70 c-1 -31 -39 -103 -55 -103 -19 0 -19 11 0 57 25 59 55 84 55 46z
m-60 -131 c0 -5 -9 -17 -20 -27 -20 -18 -25 -11 -14 19 6 17 34 23 34 8z m357
-153 c-6 -49 -27 -92 -65 -137 -29 -34 -42 -27 -42 22 0 74 51 166 92 166 19
0 20 -4 15 -51z m260 2 c-3 -28 -13 -65 -23 -83 -18 -36 -63 -88 -76 -88 -14
0 -9 89 8 128 18 43 61 92 82 92 12 0 14 -10 9 -49z m713 41 c0 -4 -9 -13 -20
-20 -24 -15 -25 -27 -5 -66 19 -35 13 -57 -26 -96 -45 -44 -59 -40 -59 18 0
53 29 126 62 153 21 19 48 25 48 11z m10 -57 c0 -14 -4 -25 -10 -25 -5 0 -10
11 -10 25 0 14 5 25 10 25 6 0 10 -11 10 -25z"/>
<path d="M2569 2283 c-71 -60 -76 -133 -19 -247 30 -59 40 -91 40 -125 -1 -80
-50 -159 -116 -187 -93 -39 -154 9 -154 121 0 49 5 69 27 103 19 29 34 42 50
42 30 0 50 -39 34 -67 -20 -38 11 -45 35 -8 21 32 11 61 -29 86 -98 59 -185
-21 -175 -161 7 -99 61 -147 176 -157 113 -10 200 69 209 190 5 62 3 70 -37
149 -36 71 -41 90 -37 130 5 58 47 125 82 134 53 13 84 -54 49 -104 -11 -16
-25 -22 -52 -22 -26 0 -33 -3 -25 -11 19 -19 75 -6 94 21 33 47 33 78 0 110
-41 41 -105 42 -152 3z"/>
<path d="M5394 2115 c-9 -21 14 -45 42 -45 30 0 33 34 5 50 -27 14 -41 13 -47
-5z"/>
<path d="M5723 2114 c-7 -18 20 -44 44 -44 23 0 28 32 8 46 -25 19 -44 18 -52
-2z"/>
<path d="M3980 2045 c-6 -8 -19 -50 -28 -95 -15 -72 -15 -83 -2 -108 21 -36
70 -42 100 -12 25 25 35 21 27 -12 -5 -17 -20 -29 -55 -41 -77 -28 -132 -95
-132 -161 0 -39 31 -76 62 -76 56 0 103 52 146 160 23 57 34 74 62 89 49 25
134 151 102 151 -4 0 -18 -20 -31 -46 -23 -42 -72 -94 -91 -94 -4 0 6 52 22
115 32 121 32 148 -3 143 -18 -2 -26 -16 -39 -65 -9 -34 -24 -72 -32 -85 -24
-36 -69 -78 -84 -78 -21 0 -18 67 6 135 11 32 20 64 20 70 0 18 -37 25 -50 10z
m66 -327 c-32 -81 -78 -148 -102 -148 -45 0 -39 86 9 139 22 23 98 64 106 56
2 -2 -4 -23 -13 -47z"/>
</g>
</svg>
